Coordinates
version=1
nRows=26
nColumns=22
inDegrees=yes

Units are S.I. units (second, meters, Newtons, ...)
If the header above contains a line with 'inDegrees', this indicates whether rotational values are in degrees (yes) or radians (no).

endheader
time	pelvis_tilt	pelvis_list	pelvis_rotation	pelvis_tx	pelvis_ty	pelvis_tz	hip_flexion_r	hip_adduction_r	hip_rotation_r	knee_angle_r	ankle_angle_r	subtalar_angle_r	hip_flexion_l	hip_adduction_l	hip_rotation_l	knee_angle_l	ankle_angle_l	subtalar_angle_l	lumbar_extension	lumbar_bending	lumbar_rotation
      0.01000000	    -11.65457337	     -0.78916991	    -11.66312769	     -1.09670743	      0.97844868	     -0.29013994	     19.49529874	      5.60757825	      0.01210745	    -18.88060520	     15.87282632	    -10.23748404	     19.81313534	     -3.05295139	     -6.63154053	    -20.10001015	     18.99252923	     -1.53532232	      3.55365125	      3.01374022	      3.91241513
      0.02000000	    -11.63843986	     -0.79963682	    -11.67431681	     -1.09685679	      0.97846138	     -0.29016684	     19.49098184	      5.61764419	      0.02360648	    -18.88898694	     15.86067228	    -10.23619047	     19.83084536	     -3.06130978	     -6.60676876	    -20.15498812	     19.01233699	     -1.53722200	      3.51774369	      3.02970041	      3.92363373
      0.03000000	    -11.61500861	     -0.81141836	    -11.69207859	     -1.09704053	      0.97848003	     -0.29018846	     19.48942463	      5.62732634	      0.01847215	    -18.91251759	     15.85072111	    -10.23567982	     19.84610829	     -3.07377082	     -6.59926213	    -20.21715100	     19.01900410	     -1.54100737	      3.46812636	      3.04693623	      3.93882431
      0.04000000	    -11.57093476	     -0.85033554	    -11.71377300	     -1.09724998	      0.97853037	     -0.29018343	     19.46381200	      5.66174679	     -0.00577100	    -18.93712169	     15.83923805	    -10.23434817	     19.84469408	     -3.11863015	     -6.62451011	    -20.29607920	     19.04966752	     -1.55424731	      3.38175612	      3.08861032	      3.95734827
      0.05000000	    -11.53834868	     -0.85450602	    -11.73336008	     -1.09749656	      0.97855432	     -0.29019313	     19.46348507	      5.66469745	      0.00370028	    -18.97071836	     15.82897901	    -10.23361925	     19.86132189	     -3.12086523	     -6.60081872	    -20.37009921	     19.04601123	     -1.55800160	      3.31653303	      3.09243186	      3.98121470
      0.06000000	    -11.48389980	     -0.88676161	    -11.76225858	     -1.09774174	      0.97860855	     -0.29017463	     19.44216785	      5.69201793	     -0.01871784	    -19.01768662	     15.82662934	    -10.23183372	     19.85427607	     -3.15847298	     -6.62513109	    -20.45597023	     19.06699983	     -1.57344744	      3.21697031	      3.12531441	      4.00669146
      0.07000000	    -11.43057350	     -0.90991896	    -11.78718986	     -1.09800850	      0.97865905	     -0.29015972	     19.42360487	      5.71218808	     -0.01801650	    -19.06300063	     15.81975271	    -10.22781490	     19.85038919	     -3.18241490	     -6.62363549	    -20.53787096	     19.08127316	     -1.58696298	      3.11843289	      3.14756295	      4.03120591
      0.08000000	    -11.39581638	     -0.91470309	    -11.80512354	     -1.09830044	      0.97867625	     -0.29015443	     19.43283420	      5.71735283	     -0.00360817	    -19.11345145	     15.81167798	    -10.22646955	     19.86874637	     -3.18613692	     -6.59976822	    -20.61371697	     19.07917112	     -1.59145739	      3.04464852	      3.15021385	      4.04922957
      0.09000000	    -11.34978400	     -0.93327914	    -11.83011883	     -1.09857766	      0.97870108	     -0.29014458	     19.43764386	      5.73323764	     -0.01465047	    -19.18488243	     15.81754400	    -10.22359713	     19.87705691	     -3.20849731	     -6.61157555	    -20.70216902	     19.09664079	     -1.60446761	      2.95680606	      3.17093559	      4.07121958
      0.10000000	    -11.31522239	     -0.93474941	    -11.84819379	     -1.09886235	      0.97871039	     -0.29015138	     19.45581122	      5.73607331	      0.00998658	    -19.25235639	     15.81034042	    -10.22282389	     19.89472268	     -3.20741300	     -6.58668973	    -20.77671236	     19.09536356	     -1.60843191	      2.88703112	      3.17565885	      4.08008726
      0.11000000	    -11.27956440	     -0.93617440	    -11.86509226	     -1.09915932	      0.97871586	     -0.29015799	     19.48104009	      5.73895501	      0.02699801	    -19.33345594	     15.81057619	    -10.22344084	     19.91309091	     -3.20803866	     -6.57569098	    -20.85201845	     19.09866654	     -1.61421962	      2.81212089	      3.17873020	      4.09147233
      0.12000000	    -11.24366933	     -0.93242905	    -11.88217135	     -1.09944255	      0.97871516	     -0.29017333	     19.50992098	      5.73686940	      0.04928316	    -19.42182020	     15.81441912	    -10.22562289	     19.93012733	     -3.20284383	     -6.56819429	    -20.92556347	     19.10366065	     -1.62038744	      2.74128878	      3.17919516	      4.10108146
      0.13000000	    -11.20783906	     -0.92256101	    -11.89817149	     -1.09972766	      0.97871031	     -0.29019032	     19.54415950	      5.73017694	      0.07896349	    -19.51790923	     15.82214197	    -10.23002660	     19.94708246	     -3.19117293	     -6.56364113	    -20.99570458	     19.10897504	     -1.62705618	      2.67151415	      3.17243686	      4.11079222
      0.14000000	    -11.17341888	     -0.88006559	    -11.93081401	     -1.10001953	      0.97868054	     -0.29017965	     19.60382805	      5.69519318	      0.10949192	    -19.64666055	     15.87566255	    -10.24845482	     19.96385510	     -3.15572324	     -6.61164265	    -21.05402385	     19.12275379	     -1.64664310	      2.60943007	      3.12547498	      4.15416710
      0.15000000	    -11.14208804	     -0.86392992	    -11.94292974	     -1.10028473	      0.97867284	     -0.29020333	     19.63929325	      5.68685618	      0.16859070	    -19.73751180	     15.87090495	    -10.25519710	     19.97781407	     -3.13377620	     -6.58833624	    -21.10921311	     19.11449025	     -1.65059960	      2.55185348	      3.11633398	      4.14851378
      0.16000000	    -11.11475249	     -0.79349720	    -11.97647765	     -1.10055890	      0.97862819	     -0.29020566	     19.71412655	      5.62755829	      0.22509051	    -19.87365202	     15.92544024	    -10.29461032	     19.99623102	     -3.06670677	     -6.63278796	    -21.14804887	     19.10350061	     -1.67000199	      2.51070474	      3.04339076	      4.19848464
      0.17000000	    -11.08776977	     -0.77911344	    -11.98265121	     -1.10081973	      0.97861929	     -0.29022030	     19.74856594	      5.62280650	      0.28564461	    -19.95567403	     15.91782724	    -10.30417693	     20.00990152	     -3.04688897	     -6.60905456	    -21.19335428	     19.09331085	     -1.67294942	      2.45827384	      3.03608685	      4.18577499
      0.18000000	    -11.06006153	     -0.75436394	    -11.98845255	     -1.10108664	      0.97860476	     -0.29023132	     19.78680372	      5.60655973	      0.33893587	    -20.04253232	     15.92154373	    -10.32028712	     20.02640656	     -3.01792347	     -6.59840082	    -21.24059292	     19.08423090	     -1.67754763	      2.40628857	      3.01350567	      4.18836139
      0.19000000	    -11.04648736	     -0.67062437	    -12.01957310	     -1.10134020	      0.97855279	     -0.29020837	     19.86391735	      5.53747023	      0.39737850	    -20.15357421	     15.98014006	    -10.39035799	     20.04401912	     -2.94069264	     -6.65035362	    -21.24743434	     19.05517703	     -1.69513003	      2.38894717	      2.92508393	      4.23521013
      0.20000000	    -11.02864970	     -0.66070546	    -12.01732971	     -1.10157658	      0.97854665	     -0.29021291	     19.88780882	      5.53543392	      0.44295563	    -20.20454148	     15.97101229	    -10.40242798	     20.05787951	     -2.92747880	     -6.63444133	    -21.27582031	     19.04435134	     -1.69736877	      2.35060640	      2.92218874	      4.22361709
      0.21000000	    -11.01841207	     -0.61461663	    -12.02771439	     -1.10181525	      0.97852533	     -0.29019756	     19.93033809	      5.49935139	      0.48578135	    -20.26091933	     15.98745611	    -10.46809307	     20.07612014	     -2.88441405	     -6.65549613	    -21.28731528	     19.01188078	     -1.70820235	      2.32943484	      2.87581781	      4.24098706
      0.22000000	    -11.00716238	     -0.60735454	    -12.02330443	     -1.10204349	      0.97852865	     -0.29019136	     19.94404101	      5.49719514	      0.51172789	    -20.28140911	     15.98057519	    -10.47934689	     20.09022888	     -2.87665114	     -6.64664689	    -21.30473016	     19.00392049	     -1.70930544	      2.29783371	      2.87291323	      4.23401172
      0.23000000	    -10.99763987	     -0.59808251	    -12.01338291	     -1.10225753	      0.97853799	     -0.29019736	     19.95208290	      5.48966582	      0.53062023	    -20.28976577	     15.97577936	    -10.49140649	     20.10476890	     -2.86628162	     -6.64615924	    -21.31855510	     18.98992111	     -1.70976193	      2.27102009	      2.86786225	      4.23222802
      0.24000000	    -10.99682178	     -0.59380026	    -12.01000369	     -1.10246024	      0.97854852	     -0.29018395	     19.95957813	      5.48805048	      0.53185349	    -20.28225866	     15.97575036	    -10.49318380	     20.11563746	     -2.86496596	     -6.64829091	    -21.31185206	     18.98775951	     -1.70967171	      2.25388455	      2.86931166	      4.23295827
      0.25000000	    -10.98899836	     -0.58117567	    -11.99489796	     -1.10269168	      0.97856975	     -0.29018996	     19.95782912	      5.47449127	      0.54595406	    -20.26619224	     15.96542559	    -10.50833914	     20.13736919	     -2.85217542	     -6.65058318	    -21.33197823	     18.95278237	     -1.70758814	      2.22478947	      2.85420231	      4.23311128
      0.26000000	    -10.98877909	     -0.57173601	    -11.98396516	     -1.10290620	      0.97859535	     -0.29018629	     19.95764834	      5.46425031	      0.54281713	    -20.23945108	     15.95479545	    -10.53065963	     20.15158714	     -2.84436497	     -6.65387673	    -21.32534170	     18.91398530	     -1.70169447	      2.20645900	      2.84485842	      4.23293215
